<svg xmlns="http://www.w3.org/2000/svg" width="720" height="450" viewBox="0 0 720 450">
<rect x="0" y="0" width="720" height="450" fill="#05070F"/><circle cx="360" cy="225" r="208.8" fill="#C9C2AE" fill-opacity="0.04314"/><circle cx="360" cy="225" r="198" fill="#C9C2AE" fill-opacity="0.04314"/><circle cx="360" cy="225" r="187.2" fill="#C9C2AE" fill-opacity="0.04314"/><circle cx="360" cy="225" r="176.4" fill="#C9C2AE" fill-opacity="0.04314"/><circle cx="360" cy="225" r="165.6" fill="#C9C2AE" fill-opacity="0.04314"/><circle cx="360" cy="225" r="154.8" fill="#C9C2AE" fill-opacity="0.04314"/><circle cx="360" cy="225" r="144" fill="#F7F2E2"/><circle cx="406.08" cy="271.08" r="118.08" fill="#C9C2AE" fill-opacity="0.298"/><circle cx="450.432" cy="191.189" r="16.286" fill="#C9C2AE" fill-opacity="0.4196"/><circle cx="450.432" cy="191.189" r="14.169" fill="none" stroke="#C9C2AE" stroke-width="4.886" stroke-opacity="0.298"/><circle cx="451.615" cy="275.994" r="9.377" fill="#C9C2AE" fill-opacity="0.4196"/><circle cx="451.615" cy="275.994" r="8.158" fill="none" stroke="#C9C2AE" stroke-width="2.813" stroke-opacity="0.298"/><circle cx="378.829" cy="169.321" r="15.081" fill="#C9C2AE" fill-opacity="0.4196"/><circle cx="378.829" cy="169.321" r="13.121" fill="none" stroke="#C9C2AE" stroke-width="4.524" stroke-opacity="0.298"/><circle cx="237.807" cy="190.379" r="10.537" fill="#C9C2AE" fill-opacity="0.4196"/><circle cx="237.807" cy="190.379" r="9.167" fill="none" stroke="#C9C2AE" stroke-width="3.161" stroke-opacity="0.298"/><circle cx="252.184" cy="275.324" r="16.377" fill="#C9C2AE" fill-opacity="0.4196"/><circle cx="252.184" cy="275.324" r="14.248" fill="none" stroke="#C9C2AE" stroke-width="4.913" stroke-opacity="0.298"/><circle cx="270.148" cy="321.013" r="15.742" fill="#C9C2AE" fill-opacity="0.4196"/><circle cx="270.148" cy="321.013" r="13.696" fill="none" stroke="#C9C2AE" stroke-width="4.723" stroke-opacity="0.298"/><circle cx="406.069" cy="319.327" r="13.16" fill="#C9C2AE" fill-opacity="0.4196"/><circle cx="406.069" cy="319.327" r="11.449" fill="none" stroke="#C9C2AE" stroke-width="3.948" stroke-opacity="0.298"/><circle cx="462.586" cy="186.459" r="6.577" fill="#C9C2AE" fill-opacity="0.4196"/><circle cx="462.586" cy="186.459" r="5.722" fill="none" stroke="#C9C2AE" stroke-width="1.973" stroke-opacity="0.298"/><circle cx="265.073" cy="226.272" r="10.803" fill="#C9C2AE" fill-opacity="0.4196"/><circle cx="265.073" cy="226.272" r="9.398" fill="none" stroke="#C9C2AE" stroke-width="3.241" stroke-opacity="0.298"/><circle cx="437.968" cy="204.239" r="7.618" fill="#C9C2AE" fill-opacity="0.4196"/><circle cx="437.968" cy="204.239" r="6.628" fill="none" stroke="#C9C2AE" stroke-width="2.285" stroke-opacity="0.298"/><circle cx="253.411" cy="210.112" r="15.859" fill="#C9C2AE" fill-opacity="0.4196"/><circle cx="253.411" cy="210.112" r="13.797" fill="none" stroke="#C9C2AE" stroke-width="4.758" stroke-opacity="0.298"/>
</svg>