<svg xmlns="http://www.w3.org/2000/svg" width="720" height="450" viewBox="0 0 720 450">
<rect x="0" y="0" width="720" height="450" fill="#05070F"/><circle cx="562.405" cy="272.631" r="1" fill="#FFC9C9" fill-opacity="0.4078"/><circle cx="454.114" cy="441.365" r="0.7" fill="#FFE9AF" fill-opacity="0.4196"/><circle cx="689.952" cy="304.192" r="1.8" fill="#FFFFFF" fill-opacity="0.7725"/><circle cx="689.952" cy="304.192" r="4.68" fill="#FFFFFF" fill-opacity="0.1686"/><circle cx="714.774" cy="94.268" r="1.8" fill="#BDD8FF" fill-opacity="0.7922"/><circle cx="714.774" cy="94.268" r="4.68" fill="#BDD8FF" fill-opacity="0.1725"/><circle cx="159.606" cy="83.147" r="1" fill="#BDD8FF" fill-opacity="0.5647"/><circle cx="317.804" cy="295.239" r="1.8" fill="#FFE9AF" fill-opacity="0.349"/><circle cx="317.804" cy="295.239" r="4.68" fill="#FFE9AF" fill-opacity="0.07843"/><circle cx="187.384" cy="212.506" r="1.3" fill="#BDD8FF" fill-opacity="0.7333"/><circle cx="309.74" cy="85.963" r="0.7" fill="#BDD8FF" fill-opacity="0.4667"/><circle cx="521.121" cy="223.834" r="1.3" fill="#FFC9C9" fill-opacity="0.5922"/><circle cx="146.153" cy="76.389" r="1" fill="#FFC9C9" fill-opacity="0.5255"/><circle cx="10.237" cy="86.685" r="1.3" fill="#BDD8FF" fill-opacity="0.8"/><circle cx="417.787" cy="180.733" r="0.7" fill="#BDD8FF" fill-opacity="0.5176"/><circle cx="455.811" cy="5.402" r="0.7" fill="#FFC9C9" fill-opacity="0.9608"/><circle cx="510.034" cy="34.532" r="1" fill="#FFC9C9" fill-opacity="0.549"/><circle cx="662.181" cy="8.15" r="1" fill="#FFFFFF" fill-opacity="0.4118"/><circle cx="244.296" cy="397.083" r="1.3" fill="#FFC9C9" fill-opacity="0.7686"/><circle cx="31.926" cy="78.666" r="0.7" fill="#FFE9AF" fill-opacity="0.7451"/><circle cx="541.081" cy="258.617" r="1" fill="#FFE9AF" fill-opacity="0.4627"/><circle cx="303.554" cy="115.142" r="0.7" fill="#BDD8FF" fill-opacity="0.9137"/><circle cx="578.986" cy="54.451" r="1.8" fill="#BDD8FF" fill-opacity="0.3608"/><circle cx="578.986" cy="54.451" r="4.68" fill="#BDD8FF" fill-opacity="0.07843"/><circle cx="97.34" cy="315.357" r="1" fill="#FFE9AF" fill-opacity="0.8706"/><circle cx="495.665" cy="288.124" r="1.3" fill="#FFC9C9" fill-opacity="0.9255"/><circle cx="599.163" cy="13.233" r="1.8" fill="#BDD8FF" fill-opacity="0.6235"/><circle cx="599.163" cy="13.233" r="4.68" fill="#BDD8FF" fill-opacity="0.1373"/><circle cx="212.761" cy="391.24" r="0.7" fill="#BDD8FF" fill-opacity="0.8353"/><circle cx="518.284" cy="4.654" r="1.8" fill="#FFE9AF" fill-opacity="0.8627"/><circle cx="518.284" cy="4.654" r="4.68" fill="#FFE9AF" fill-opacity="0.1882"/><circle cx="718.854" cy="126.319" r="1.3" fill="#BDD8FF" fill-opacity="0.4196"/><circle cx="538.357" cy="160.452" r="0.7" fill="#FFFFFF" fill-opacity="0.4627"/><circle cx="408.743" cy="212.606" r="1.8" fill="#FFC9C9" fill-opacity="0.5686"/><circle cx="408.743" cy="212.606" r="4.68" fill="#FFC9C9" fill-opacity="0.1255"/><circle cx="429.371" cy="169.013" r="1" fill="#BDD8FF" fill-opacity="0.3529"/><circle cx="424.026" cy="264.405" r="1" fill="#FFFFFF" fill-opacity="0.8314"/><circle cx="456.861" cy="427.579" r="1.3" fill="#FFFFFF" fill-opacity="0.6196"/><circle cx="622.776" cy="424.917" r="1" fill="#FFC9C9" fill-opacity="0.5725"/><circle cx="535.597" cy="204.433" r="1.3" fill="#FFC9C9" fill-opacity="0.7765"/><circle cx="669.622" cy="3.982" r="1" fill="#FFC9C9" fill-opacity="0.9255"/><circle cx="269.52" cy="106.576" r="0.7" fill="#FFC9C9" fill-opacity="0.3686"/><circle cx="579.562" cy="219.648" r="0.7" fill="#FFC9C9" fill-opacity="0.8392"/><circle cx="14.118" cy="85.362" r="1.3" fill="#FFE9AF" fill-opacity="0.7333"/><circle cx="263.925" cy="125.19" r="1" fill="#FFFFFF" fill-opacity="0.6196"/><circle cx="676.514" cy="13.493" r="1.3" fill="#FFC9C9" fill-opacity="0.4784"/><circle cx="699.619" cy="363.019" r="1" fill="#FFFFFF" fill-opacity="0.9608"/><circle cx="224.037" cy="310.744" r="1" fill="#FFE9AF" fill-opacity="0.5333"/><circle cx="45.951" cy="132.274" r="1.3" fill="#FFE9AF" fill-opacity="0.3686"/><circle cx="8.449" cy="4.683" r="1.3" fill="#BDD8FF" fill-opacity="0.6118"/><circle cx="659.883" cy="215.897" r="1.8" fill="#FFC9C9" fill-opacity="0.5843"/><circle cx="659.883" cy="215.897" r="4.68" fill="#FFC9C9" fill-opacity="0.1294"/><circle cx="561.727" cy="154.434" r="1.8" fill="#BDD8FF" fill-opacity="0.5961"/><circle cx="561.727" cy="154.434" r="4.68" fill="#BDD8FF" fill-opacity="0.1294"/><circle cx="91.563" cy="187.868" r="1" fill="#FFFFFF" fill-opacity="0.5922"/><circle cx="278.603" cy="318.406" r="1.3" fill="#BDD8FF" fill-opacity="0.4471"/><circle cx="438.697" cy="376.754" r="1.3" fill="#FFC9C9" fill-opacity="0.498"/><circle cx="302.252" cy="419.827" r="1.8" fill="#FFC9C9" fill-opacity="0.7765"/><circle cx="302.252" cy="419.827" r="4.68" fill="#FFC9C9" fill-opacity="0.1725"/><circle cx="222.268" cy="356.615" r="0.7" fill="#FFC9C9" fill-opacity="0.8471"/><circle cx="201.706" cy="104.523" r="1.8" fill="#FFFFFF" fill-opacity="0.7255"/><circle cx="201.706" cy="104.523" r="4.68" fill="#FFFFFF" fill-opacity="0.1608"/><circle cx="56.903" cy="155.511" r="1.8" fill="#FFC9C9" fill-opacity="0.5255"/><circle cx="56.903" cy="155.511" r="4.68" fill="#FFC9C9" fill-opacity="0.1137"/><circle cx="186.94" cy="105.328" r="0.7" fill="#FFE9AF" fill-opacity="0.8275"/><circle cx="189.912" cy="239.479" r="1.3" fill="#BDD8FF" fill-opacity="0.6667"/><circle cx="194.251" cy="377.438" r="0.7" fill="#BDD8FF" fill-opacity="0.8196"/><circle cx="234.312" cy="225.244" r="1.3" fill="#FFE9AF" fill-opacity="0.9294"/><circle cx="7.702" cy="393.369" r="1.3" fill="#FFE9AF" fill-opacity="0.4431"/><circle cx="604.559" cy="356.356" r="1.3" fill="#FFFFFF" fill-opacity="0.5373"/><circle cx="67.738" cy="336.176" r="1.8" fill="#BDD8FF" fill-opacity="0.5333"/><circle cx="67.738" cy="336.176" r="4.68" fill="#BDD8FF" fill-opacity="0.1176"/><circle cx="256.251" cy="14.887" r="1.8" fill="#FFFFFF" fill-opacity="0.3922"/><circle cx="256.251" cy="14.887" r="4.68" fill="#FFFFFF" fill-opacity="0.08627"/><circle cx="521.417" cy="93.369" r="0.7" fill="#FFE9AF" fill-opacity="0.5216"/><circle cx="374.195" cy="249.565" r="0.7" fill="#FFE9AF" fill-opacity="0.5176"/><circle cx="653.779" cy="420.854" r="1.8" fill="#FFE9AF" fill-opacity="0.6"/><circle cx="653.779" cy="420.854" r="4.68" fill="#FFE9AF" fill-opacity="0.1333"/><circle cx="373.12" cy="243.782" r="0.7" fill="#BDD8FF" fill-opacity="0.6235"/><circle cx="247.257" cy="427.466" r="1" fill="#FFC9C9" fill-opacity="0.4353"/><circle cx="393.869" cy="368.357" r="0.7" fill="#FFC9C9" fill-opacity="0.5176"/><circle cx="261.265" cy="328.394" r="1.8" fill="#FFC9C9" fill-opacity="0.3608"/><circle cx="261.265" cy="328.394" r="4.68" fill="#FFC9C9" fill-opacity="0.07843"/><circle cx="231.154" cy="333.128" r="1.3" fill="#FFFFFF" fill-opacity="0.6039"/><circle cx="401.87" cy="136.179" r="0.7" fill="#FFC9C9" fill-opacity="0.3922"/><circle cx="673.187" cy="340.328" r="1" fill="#BDD8FF" fill-opacity="0.6784"/><circle cx="335.141" cy="138.926" r="1.8" fill="#FFFFFF" fill-opacity="0.6745"/><circle cx="335.141" cy="138.926" r="4.68" fill="#FFFFFF" fill-opacity="0.149"/><circle cx="223.088" cy="388.99" r="1.3" fill="#FFFFFF" fill-opacity="0.3765"/><circle cx="567.721" cy="441.181" r="1.3" fill="#FFE9AF" fill-opacity="0.898"/><circle cx="517.411" cy="353.884" r="1.3" fill="#FFC9C9" fill-opacity="0.6706"/><circle cx="453.414" cy="358.561" r="1.8" fill="#BDD8FF" fill-opacity="0.9098"/><circle cx="453.414" cy="358.561" r="4.68" fill="#BDD8FF" fill-opacity="0.2"/><circle cx="527.869" cy="418.559" r="1.8" fill="#FFFFFF" fill-opacity="0.3569"/><circle cx="527.869" cy="418.559" r="4.68" fill="#FFFFFF" fill-opacity="0.07843"/><circle cx="183.258" cy="3.014" r="1.3" fill="#FFC9C9" fill-opacity="0.4745"/><circle cx="631.565" cy="43.237" r="1.3" fill="#BDD8FF" fill-opacity="0.3882"/><circle cx="675.821" cy="163.719" r="1" fill="#FFE9AF" fill-opacity="0.5529"/><circle cx="507.625" cy="389.519" r="1.3" fill="#FFC9C9" fill-opacity="0.4392"/><circle cx="269.215" cy="219.162" r="0.7" fill="#FFE9AF" fill-opacity="0.9373"/><circle cx="509.121" cy="315.7" r="1.3" fill="#FFFFFF" fill-opacity="0.6863"/><circle cx="167.412" cy="145.076" r="1.3" fill="#BDD8FF" fill-opacity="0.5059"/><circle cx="491.441" cy="108.66" r="1.8" fill="#BDD8FF" fill-opacity="0.451"/><circle cx="491.441" cy="108.66" r="4.68" fill="#BDD8FF" fill-opacity="0.09804"/><circle cx="636.333" cy="23.352" r="1.3" fill="#FFFFFF" fill-opacity="0.7647"/><circle cx="258.672" cy="73.372" r="0.7" fill="#FFFFFF" fill-opacity="0.6784"/><circle cx="221.533" cy="406.342" r="1.8" fill="#FFC9C9" fill-opacity="0.6588"/><circle cx="221.533" cy="406.342" r="4.68" fill="#FFC9C9" fill-opacity="0.1451"/><circle cx="469.382" cy="100.705" r="1" fill="#FFE9AF" fill-opacity="0.8588"/><circle cx="649.812" cy="66.861" r="1.3" fill="#FFE9AF" fill-opacity="0.8392"/><circle cx="206.327" cy="152.265" r="1" fill="#FFFFFF" fill-opacity="0.8784"/><circle cx="79.426" cy="303.686" r="1" fill="#FFFFFF" fill-opacity="0.5176"/><circle cx="666.562" cy="54.068" r="1.3" fill="#BDD8FF" fill-opacity="0.4863"/><circle cx="592.193" cy="149.979" r="0.7" fill="#FFC9C9" fill-opacity="0.8627"/><circle cx="64.604" cy="170.731" r="1.8" fill="#BDD8FF" fill-opacity="0.5176"/><circle cx="64.604" cy="170.731" r="4.68" fill="#BDD8FF" fill-opacity="0.1137"/><circle cx="408.864" cy="410.02" r="1" fill="#FFC9C9" fill-opacity="0.9294"/><circle cx="398.986" cy="301.903" r="1" fill="#FFFFFF" fill-opacity="0.9451"/><circle cx="302.791" cy="240.71" r="1.8" fill="#FFC9C9" fill-opacity="0.549"/><circle cx="302.791" cy="240.71" r="4.68" fill="#FFC9C9" fill-opacity="0.1216"/><circle cx="690.014" cy="295.797" r="0.7" fill="#FFC9C9" fill-opacity="0.4471"/><circle cx="526.442" cy="288.441" r="0.7" fill="#BDD8FF" fill-opacity="0.7098"/><circle cx="237.064" cy="281.645" r="1" fill="#FFFFFF" fill-opacity="0.4941"/><circle cx="413.155" cy="289.79" r="1.3" fill="#BDD8FF" fill-opacity="0.3725"/><circle cx="630.901" cy="182.646" r="0.7" fill="#FFFFFF" fill-opacity="0.6"/><circle cx="431.103" cy="165.963" r="1.3" fill="#FFE9AF" fill-opacity="0.8627"/><circle cx="305.96" cy="431.055" r="0.7" fill="#FFE9AF" fill-opacity="0.4118"/><circle cx="348.414" cy="328.16" r="0.7" fill="#FFE9AF" fill-opacity="0.502"/><circle cx="404.608" cy="369.416" r="1.8" fill="#FFC9C9" fill-opacity="0.7294"/><circle cx="404.608" cy="369.416" r="4.68" fill="#FFC9C9" fill-opacity="0.1608"/><circle cx="284.982" cy="294.429" r="1.3" fill="#BDD8FF" fill-opacity="0.4"/><circle cx="703.731" cy="194.622" r="1.3" fill="#FFE9AF" fill-opacity="0.6627"/><circle cx="527.521" cy="211.937" r="0.7" fill="#FFC9C9" fill-opacity="0.5373"/><circle cx="182.842" cy="230.955" r="0.7" fill="#FFFFFF" fill-opacity="0.3804"/><circle cx="511.453" cy="65.249" r="1.3" fill="#FFC9C9" fill-opacity="0.9294"/><circle cx="600.064" cy="47.97" r="1.8" fill="#FFE9AF" fill-opacity="0.698"/><circle cx="600.064" cy="47.97" r="4.68" fill="#FFE9AF" fill-opacity="0.1529"/><circle cx="248.691" cy="165.47" r="1" fill="#BDD8FF" fill-opacity="0.451"/><circle cx="611.311" cy="351.733" r="0.7" fill="#FFFFFF" fill-opacity="0.5843"/><circle cx="378.171" cy="406.858" r="0.7" fill="#FFFFFF" fill-opacity="0.9137"/><circle cx="40.715" cy="134.641" r="1" fill="#FFFFFF" fill-opacity="0.9608"/><circle cx="692.575" cy="195.178" r="1" fill="#FFC9C9" fill-opacity="0.3804"/><circle cx="399.17" cy="156.732" r="1.8" fill="#FFC9C9" fill-opacity="0.5451"/><circle cx="399.17" cy="156.732" r="4.68" fill="#FFC9C9" fill-opacity="0.1176"/><circle cx="478.951" cy="215.802" r="0.7" fill="#FFE9AF" fill-opacity="0.6588"/><circle cx="251.665" cy="229.347" r="1.3" fill="#FFC9C9" fill-opacity="0.749"/><circle cx="96.994" cy="297.447" r="1" fill="#FFFFFF" fill-opacity="0.7569"/><circle cx="532.919" cy="289.242" r="1.3" fill="#BDD8FF" fill-opacity="0.6078"/><circle cx="713.438" cy="398.845" r="1.3" fill="#FFC9C9" fill-opacity="0.5412"/><circle cx="673.503" cy="259.601" r="1.8" fill="#FFFFFF" fill-opacity="0.6078"/><circle cx="673.503" cy="259.601" r="4.68" fill="#FFFFFF" fill-opacity="0.1333"/><circle cx="85.272" cy="220.06" r="1" fill="#FFE9AF" fill-opacity="0.4471"/><circle cx="546.78" cy="140.816" r="0.7" fill="#BDD8FF" fill-opacity="0.7843"/><circle cx="277.87" cy="131.538" r="0.7" fill="#FFFFFF" fill-opacity="0.5725"/><circle cx="399.009" cy="6.527" r="1.3" fill="#FFC9C9" fill-opacity="0.4824"/><circle cx="119.103" cy="68.97" r="0.7" fill="#FFE9AF" fill-opacity="0.7333"/><circle cx="186.287" cy="302.197" r="1.3" fill="#FFE9AF" fill-opacity="0.5725"/><circle cx="691.744" cy="420.567" r="1" fill="#FFFFFF" fill-opacity="0.6431"/><circle cx="402.193" cy="156.456" r="0.7" fill="#FFE9AF" fill-opacity="0.9529"/><circle cx="426.324" cy="421.156" r="1.3" fill="#FFE9AF" fill-opacity="0.7569"/><circle cx="393.426" cy="356.996" r="0.7" fill="#FFFFFF" fill-opacity="0.3725"/><circle cx="583.457" cy="400.87" r="1.3" fill="#FFFFFF" fill-opacity="0.902"/><circle cx="344.466" cy="33.766" r="0.7" fill="#FFE9AF" fill-opacity="0.4549"/><circle cx="376.611" cy="448.019" r="1.3" fill="#FFE9AF" fill-opacity="0.7843"/><circle cx="216.438" cy="60.252" r="1.3" fill="#BDD8FF" fill-opacity="0.9059"/><circle cx="71.321" cy="112.968" r="1" fill="#FFC9C9" fill-opacity="0.8196"/><circle cx="221.132" cy="22.851" r="0.7" fill="#FFE9AF" fill-opacity="0.7059"/><circle cx="620.197" cy="8.766" r="1.8" fill="#FFC9C9" fill-opacity="0.7333"/><circle cx="620.197" cy="8.766" r="4.68" fill="#FFC9C9" fill-opacity="0.1608"/><circle cx="237.697" cy="209.535" r="1" fill="#FFFFFF" fill-opacity="0.6588"/><circle cx="553.969" cy="140.71" r="1.3" fill="#FFC9C9" fill-opacity="0.7725"/><circle cx="84.647" cy="188.95" r="1.8" fill="#FFE9AF" fill-opacity="0.498"/><circle cx="84.647" cy="188.95" r="4.68" fill="#FFE9AF" fill-opacity="0.1098"/><circle cx="430.037" cy="20.502" r="1.3" fill="#FFC9C9" fill-opacity="0.8039"/><circle cx="154.789" cy="15.358" r="0.7" fill="#BDD8FF" fill-opacity="0.8863"/><circle cx="244.178" cy="382.412" r="1" fill="#FFFFFF" fill-opacity="0.4745"/><circle cx="512.52" cy="58.803" r="1" fill="#FFE9AF" fill-opacity="0.7569"/><circle cx="188.533" cy="2.851" r="1" fill="#BDD8FF" fill-opacity="0.5529"/><circle cx="190.92" cy="233.807" r="1.3" fill="#BDD8FF" fill-opacity="0.6118"/><circle cx="381.372" cy="352.666" r="1.3" fill="#BDD8FF" fill-opacity="0.7412"/><circle cx="588.303" cy="105.227" r="1" fill="#FFFFFF" fill-opacity="0.4157"/><circle cx="195.888" cy="104.971" r="0.7" fill="#BDD8FF" fill-opacity="0.9529"/><circle cx="79.723" cy="295.422" r="1.8" fill="#BDD8FF" fill-opacity="0.9333"/><circle cx="79.723" cy="295.422" r="4.68" fill="#BDD8FF" fill-opacity="0.2039"/><circle cx="151.528" cy="266.293" r="1" fill="#FFC9C9" fill-opacity="0.3608"/><circle cx="57.52" cy="325.262" r="1" fill="#FFC9C9" fill-opacity="0.7765"/><circle cx="79.638" cy="87.91" r="1.8" fill="#BDD8FF" fill-opacity="0.5922"/><circle cx="79.638" cy="87.91" r="4.68" fill="#BDD8FF" fill-opacity="0.1294"/><circle cx="352.628" cy="345.842" r="1.8" fill="#FFFFFF" fill-opacity="0.4235"/><circle cx="352.628" cy="345.842" r="4.68" fill="#FFFFFF" fill-opacity="0.09412"/><circle cx="360.732" cy="293.388" r="1" fill="#FFE9AF" fill-opacity="0.6745"/><circle cx="541.799" cy="389.399" r="1" fill="#FFE9AF" fill-opacity="0.8118"/><circle cx="154.992" cy="214.265" r="1.3" fill="#FFC9C9" fill-opacity="0.5529"/><circle cx="444.381" cy="121.388" r="1.8" fill="#FFC9C9" fill-opacity="0.6588"/><circle cx="444.381" cy="121.388" r="4.68" fill="#FFC9C9" fill-opacity="0.1451"/><circle cx="303.78" cy="57.62" r="1.3" fill="#FFE9AF" fill-opacity="0.8471"/><circle cx="123.68" cy="351.075" r="1.8" fill="#BDD8FF" fill-opacity="0.9294"/><circle cx="123.68" cy="351.075" r="4.68" fill="#BDD8FF" fill-opacity="0.2039"/><circle cx="376.277" cy="230.061" r="1" fill="#FFE9AF" fill-opacity="0.698"/><circle cx="627.452" cy="251.62" r="1.3" fill="#FFC9C9" fill-opacity="0.8392"/><circle cx="221.744" cy="13.007" r="1.8" fill="#BDD8FF" fill-opacity="0.5922"/><circle cx="221.744" cy="13.007" r="4.68" fill="#BDD8FF" fill-opacity="0.1294"/><circle cx="352.535" cy="212.528" r="1.8" fill="#FFC9C9" fill-opacity="0.4863"/><circle cx="352.535" cy="212.528" r="4.68" fill="#FFC9C9" fill-opacity="0.1059"/><circle cx="184.492" cy="106.08" r="0.7" fill="#FFC9C9" fill-opacity="0.6235"/><circle cx="717.787" cy="397.777" r="1.8" fill="#BDD8FF" fill-opacity="0.4824"/><circle cx="717.787" cy="397.777" r="4.68" fill="#BDD8FF" fill-opacity="0.1059"/><circle cx="148.477" cy="342.583" r="1.3" fill="#FFC9C9" fill-opacity="0.5412"/><circle cx="279.614" cy="7.281" r="1.3" fill="#BDD8FF" fill-opacity="0.4196"/><circle cx="578.234" cy="206.983" r="1.3" fill="#FFC9C9" fill-opacity="0.4"/><circle cx="377.909" cy="211.338" r="1" fill="#FFC9C9" fill-opacity="0.4392"/><circle cx="674.518" cy="446.566" r="1.8" fill="#FFFFFF" fill-opacity="0.4039"/><circle cx="674.518" cy="446.566" r="4.68" fill="#FFFFFF" fill-opacity="0.0902"/><circle cx="387.167" cy="197.807" r="1.3" fill="#FFC9C9" fill-opacity="0.9686"/><circle cx="518.792" cy="325.154" r="1" fill="#BDD8FF" fill-opacity="0.7373"/><circle cx="238.852" cy="63.135" r="1.3" fill="#FFE9AF" fill-opacity="0.7294"/><circle cx="170.194" cy="119" r="1.3" fill="#FFC9C9" fill-opacity="0.8549"/><circle cx="209.554" cy="422.481" r="0.7" fill="#BDD8FF" fill-opacity="0.5725"/><circle cx="336.399" cy="60.713" r="0.7" fill="#BDD8FF" fill-opacity="0.9255"/><circle cx="571.672" cy="41.593" r="1" fill="#BDD8FF" fill-opacity="0.5686"/><circle cx="427.456" cy="131.832" r="1" fill="#FFE9AF" fill-opacity="0.5412"/><circle cx="7.98" cy="251.111" r="1" fill="#FFE9AF" fill-opacity="0.7608"/><circle cx="279.79" cy="440.417" r="0.7" fill="#FFC9C9" fill-opacity="0.8235"/><circle cx="211.964" cy="414.28" r="1.8" fill="#BDD8FF" fill-opacity="0.7961"/><circle cx="211.964" cy="414.28" r="4.68" fill="#BDD8FF" fill-opacity="0.1765"/><circle cx="34.959" cy="239.341" r="0.7" fill="#FFFFFF" fill-opacity="0.4549"/><circle cx="497.799" cy="171.3" r="1.3" fill="#BDD8FF" fill-opacity="0.8667"/><circle cx="37.208" cy="102.554" r="1" fill="#FFC9C9" fill-opacity="0.6353"/><circle cx="628.233" cy="391.421" r="0.7" fill="#BDD8FF" fill-opacity="0.7804"/><circle cx="178.462" cy="169.694" r="0.7" fill="#FFFFFF" fill-opacity="0.7843"/><circle cx="52.66" cy="161.299" r="0.7" fill="#FFFFFF" fill-opacity="0.3843"/><circle cx="548.849" cy="126.398" r="1.8" fill="#FFC9C9" fill-opacity="0.5804"/><circle cx="548.849" cy="126.398" r="4.68" fill="#FFC9C9" fill-opacity="0.1294"/><circle cx="370.703" cy="434.086" r="1.8" fill="#FFE9AF" fill-opacity="0.5843"/><circle cx="370.703" cy="434.086" r="4.68" fill="#FFE9AF" fill-opacity="0.1294"/><circle cx="645.299" cy="187.846" r="1" fill="#BDD8FF" fill-opacity="0.8706"/><circle cx="154.853" cy="107.717" r="1" fill="#BDD8FF" fill-opacity="0.7922"/><circle cx="259.019" cy="104.242" r="0.7" fill="#FFFFFF" fill-opacity="0.8353"/><circle cx="512.163" cy="145.9" r="1" fill="#FFFFFF" fill-opacity="0.7922"/><circle cx="335.66" cy="267.21" r="0.7" fill="#FFE9AF" fill-opacity="0.5333"/><circle cx="242.971" cy="235.971" r="1.3" fill="#FFC9C9" fill-opacity="0.3647"/><circle cx="32.334" cy="207.87" r="0.7" fill="#BDD8FF" fill-opacity="0.6471"/><circle cx="691.811" cy="88.744" r="1.8" fill="#FFE9AF" fill-opacity="0.9529"/><circle cx="691.811" cy="88.744" r="4.68" fill="#FFE9AF" fill-opacity="0.2118"/><circle cx="621.829" cy="47.555" r="0.7" fill="#FFE9AF" fill-opacity="0.5137"/><circle cx="229.85" cy="424.619" r="1.8" fill="#FFC9C9" fill-opacity="0.6392"/><circle cx="229.85" cy="424.619" r="4.68" fill="#FFC9C9" fill-opacity="0.1412"/><circle cx="225.921" cy="381.244" r="0.7" fill="#FFC9C9" fill-opacity="0.9412"/><circle cx="580.154" cy="415.989" r="1.3" fill="#FFFFFF" fill-opacity="0.6275"/><circle cx="587.586" cy="198.958" r="1.3" fill="#BDD8FF" fill-opacity="0.6314"/><circle cx="548.962" cy="27.227" r="1.3" fill="#FFC9C9" fill-opacity="0.6235"/><circle cx="679.666" cy="331.165" r="1.3" fill="#BDD8FF" fill-opacity="0.7765"/><circle cx="715.912" cy="35.391" r="1" fill="#FFC9C9" fill-opacity="0.902"/><circle cx="71.179" cy="237.422" r="0.7" fill="#FFE9AF" fill-opacity="0.7412"/><circle cx="150.565" cy="182.805" r="1.3" fill="#FFC9C9" fill-opacity="0.4353"/><circle cx="536.809" cy="63.811" r="1.3" fill="#FFFFFF" fill-opacity="0.702"/><circle cx="360.38" cy="228.796" r="1.8" fill="#FFE9AF" fill-opacity="0.7882"/><circle cx="360.38" cy="228.796" r="4.68" fill="#FFE9AF" fill-opacity="0.1725"/><circle cx="644.622" cy="362.493" r="0.7" fill="#FFC9C9" fill-opacity="0.349"/><circle cx="612.76" cy="44.445" r="1.3" fill="#BDD8FF" fill-opacity="0.6"/><circle cx="457.371" cy="61.794" r="0.7" fill="#FFFFFF" fill-opacity="0.7176"/><circle cx="321.46" cy="145.547" r="1.3" fill="#FFC9C9" fill-opacity="0.8039"/><circle cx="184.031" cy="371.7" r="0.7" fill="#FFE9AF" fill-opacity="0.9686"/><circle cx="466.422" cy="401.54" r="0.7" fill="#FFFFFF" fill-opacity="0.6392"/><circle cx="15.162" cy="236.395" r="1.3" fill="#BDD8FF" fill-opacity="0.8824"/><circle cx="585.642" cy="266.252" r="1.8" fill="#BDD8FF" fill-opacity="0.7725"/><circle cx="585.642" cy="266.252" r="4.68" fill="#BDD8FF" fill-opacity="0.1686"/><circle cx="379.076" cy="84.653" r="1.8" fill="#FFC9C9" fill-opacity="0.9451"/><circle cx="379.076" cy="84.653" r="4.68" fill="#FFC9C9" fill-opacity="0.2078"/><circle cx="71.553" cy="165.264" r="0.7" fill="#BDD8FF" fill-opacity="0.7294"/><circle cx="415.063" cy="221.638" r="1.8" fill="#FFFFFF" fill-opacity="0.7451"/><circle cx="415.063" cy="221.638" r="4.68" fill="#FFFFFF" fill-opacity="0.1647"/><circle cx="406.217" cy="369.023" r="1.3" fill="#FFC9C9" fill-opacity="0.7333"/><circle cx="444.773" cy="80.654" r="0.7" fill="#FFE9AF" fill-opacity="0.8353"/><circle cx="106.78" cy="382.817" r="1.3" fill="#BDD8FF" fill-opacity="0.5451"/><circle cx="226.111" cy="424.588" r="1.3" fill="#FFE9AF" fill-opacity="0.7882"/><circle cx="504.376" cy="442.827" r="1.3" fill="#FFE9AF" fill-opacity="0.7961"/><circle cx="683.822" cy="425.551" r="0.7" fill="#FFE9AF" fill-opacity="0.6431"/><circle cx="541.848" cy="303.388" r="1.8" fill="#FFE9AF" fill-opacity="0.8275"/><circle cx="541.848" cy="303.388" r="4.68" fill="#FFE9AF" fill-opacity="0.1843"/><circle cx="195.177" cy="249.104" r="1.8" fill="#FFC9C9" fill-opacity="0.8824"/><circle cx="195.177" cy="249.104" r="4.68" fill="#FFC9C9" fill-opacity="0.1922"/><circle cx="662.709" cy="37.088" r="0.7" fill="#FFFFFF" fill-opacity="0.6627"/><circle cx="271.032" cy="36.718" r="0.7" fill="#FFFFFF" fill-opacity="0.8118"/><circle cx="116.782" cy="340.308" r="1" fill="#FFC9C9" fill-opacity="0.3529"/><circle cx="408.727" cy="109.322" r="1.3" fill="#FFFFFF" fill-opacity="0.5137"/><circle cx="677.893" cy="412.513" r="1.8" fill="#FFC9C9" fill-opacity="0.4549"/><circle cx="677.893" cy="412.513" r="4.68" fill="#FFC9C9" fill-opacity="0.09804"/><circle cx="185.573" cy="50.288" r="1.3" fill="#BDD8FF" fill-opacity="0.4118"/><circle cx="406.173" cy="250.429" r="0.7" fill="#BDD8FF" fill-opacity="0.9098"/><circle cx="45.595" cy="426.596" r="1.3" fill="#FFE9AF" fill-opacity="0.8118"/><circle cx="587.908" cy="17.882" r="1.3" fill="#FFFFFF" fill-opacity="0.5137"/><circle cx="444.408" cy="277.937" r="0.7" fill="#FFC9C9" fill-opacity="0.5412"/><circle cx="456.421" cy="164.037" r="1.3" fill="#FFC9C9" fill-opacity="0.7765"/><circle cx="348.479" cy="230.67" r="0.7" fill="#FFFFFF" fill-opacity="0.3843"/><circle cx="470.421" cy="372.413" r="1.3" fill="#BDD8FF" fill-opacity="0.5725"/><circle cx="539.883" cy="312.983" r="1.8" fill="#FFE9AF" fill-opacity="0.7804"/><circle cx="539.883" cy="312.983" r="4.68" fill="#FFE9AF" fill-opacity="0.1725"/><circle cx="289.16" cy="267.175" r="1.8" fill="#BDD8FF" fill-opacity="0.8353"/><circle cx="289.16" cy="267.175" r="4.68" fill="#BDD8FF" fill-opacity="0.1843"/><circle cx="692.43" cy="259.778" r="0.7" fill="#FFE9AF" fill-opacity="0.8941"/><circle cx="147.471" cy="11.852" r="1.3" fill="#BDD8FF" fill-opacity="0.4902"/><circle cx="641.103" cy="254.123" r="1.8" fill="#FFE9AF" fill-opacity="0.7961"/><circle cx="641.103" cy="254.123" r="4.68" fill="#FFE9AF" fill-opacity="0.1765"/><circle cx="315.878" cy="137.588" r="0.7" fill="#FFC9C9" fill-opacity="0.4824"/><circle cx="234.934" cy="4.762" r="0.7" fill="#FFE9AF" fill-opacity="0.7216"/><circle cx="387.295" cy="244.469" r="0.7" fill="#FFFFFF" fill-opacity="0.949"/><circle cx="14.97" cy="318.839" r="1.8" fill="#FFFFFF" fill-opacity="0.3843"/><circle cx="14.97" cy="318.839" r="4.68" fill="#FFFFFF" fill-opacity="0.08627"/><circle cx="590.937" cy="157.034" r="0.7" fill="#FFFFFF" fill-opacity="0.9333"/><circle cx="242.196" cy="155.595" r="0.7" fill="#BDD8FF" fill-opacity="0.8627"/><circle cx="672.683" cy="76.569" r="1.8" fill="#FFC9C9" fill-opacity="0.9569"/><circle cx="672.683" cy="76.569" r="4.68" fill="#FFC9C9" fill-opacity="0.2118"/><circle cx="23.466" cy="171.181" r="1.8" fill="#FFE9AF" fill-opacity="0.9137"/><circle cx="23.466" cy="171.181" r="4.68" fill="#FFE9AF" fill-opacity="0.2"/><circle cx="30.132" cy="140.447" r="1.8" fill="#FFFFFF" fill-opacity="0.7294"/><circle cx="30.132" cy="140.447" r="4.68" fill="#FFFFFF" fill-opacity="0.1608"/><circle cx="573.589" cy="107.586" r="0.7" fill="#BDD8FF" fill-opacity="0.902"/><circle cx="137.709" cy="309.974" r="0.7" fill="#BDD8FF" fill-opacity="0.8157"/><circle cx="27.225" cy="37.937" r="1.8" fill="#FFFFFF" fill-opacity="0.4784"/><circle cx="27.225" cy="37.937" r="4.68" fill="#FFFFFF" fill-opacity="0.1059"/><circle cx="379.384" cy="417.673" r="1.8" fill="#BDD8FF" fill-opacity="0.9569"/><circle cx="379.384" cy="417.673" r="4.68" fill="#BDD8FF" fill-opacity="0.2118"/><circle cx="551.812" cy="345.205" r="0.7" fill="#FFFFFF" fill-opacity="0.5961"/><circle cx="664.82" cy="102.071" r="1.8" fill="#BDD8FF" fill-opacity="0.851"/><circle cx="664.82" cy="102.071" r="4.68" fill="#BDD8FF" fill-opacity="0.1882"/><circle cx="500.065" cy="381.83" r="1" fill="#FFC9C9" fill-opacity="0.7451"/><circle cx="456.925" cy="296.065" r="1.8" fill="#FFE9AF" fill-opacity="0.6745"/><circle cx="456.925" cy="296.065" r="4.68" fill="#FFE9AF" fill-opacity="0.149"/><circle cx="229.118" cy="9.651" r="1.3" fill="#FFC9C9" fill-opacity="0.7373"/><circle cx="713.956" cy="338.244" r="1.3" fill="#BDD8FF" fill-opacity="0.6"/><circle cx="39.143" cy="435.763" r="1.3" fill="#FFE9AF" fill-opacity="0.9137"/><circle cx="194.533" cy="373.039" r="0.7" fill="#FFE9AF" fill-opacity="0.5216"/><circle cx="92.684" cy="392.771" r="0.7" fill="#FFC9C9" fill-opacity="0.8314"/><circle cx="235.183" cy="260.859" r="1" fill="#FFFFFF" fill-opacity="0.5608"/><circle cx="592.452" cy="147.708" r="1.8" fill="#FFC9C9" fill-opacity="0.6118"/><circle cx="592.452" cy="147.708" r="4.68" fill="#FFC9C9" fill-opacity="0.1333"/><circle cx="616.02" cy="90.053" r="1.3" fill="#FFE9AF" fill-opacity="0.7294"/><circle cx="677.937" cy="408.785" r="1.8" fill="#FFFFFF" fill-opacity="0.4588"/><circle cx="677.937" cy="408.785" r="4.68" fill="#FFFFFF" fill-opacity="0.102"/><circle cx="393.774" cy="15.224" r="1" fill="#FFFFFF" fill-opacity="0.9176"/><circle cx="340.471" cy="380.289" r="1.3" fill="#BDD8FF" fill-opacity="0.6039"/><circle cx="370.906" cy="437.917" r="1" fill="#FFFFFF" fill-opacity="0.4706"/><circle cx="37.451" cy="42.169" r="1" fill="#FFC9C9" fill-opacity="0.3569"/><circle cx="481.859" cy="356.67" r="1.8" fill="#FFE9AF" fill-opacity="0.4667"/><circle cx="481.859" cy="356.67" r="4.68" fill="#FFE9AF" fill-opacity="0.102"/><circle cx="171.355" cy="167.471" r="1.8" fill="#FFC9C9" fill-opacity="0.5412"/><circle cx="171.355" cy="167.471" r="4.68" fill="#FFC9C9" fill-opacity="0.1176"/><circle cx="701.156" cy="194.233" r="1.3" fill="#FFFFFF" fill-opacity="0.4"/><circle cx="667.972" cy="223.301" r="1" fill="#FFFFFF" fill-opacity="0.8549"/><circle cx="24.999" cy="407.527" r="1.3" fill="#BDD8FF" fill-opacity="0.9412"/><circle cx="227.996" cy="418.791" r="1.8" fill="#BDD8FF" fill-opacity="0.4471"/><circle cx="227.996" cy="418.791" r="4.68" fill="#BDD8FF" fill-opacity="0.09804"/><circle cx="492.826" cy="39.502" r="1.3" fill="#FFFFFF" fill-opacity="0.9765"/><circle cx="116.704" cy="399.265" r="1.3" fill="#BDD8FF" fill-opacity="0.8745"/><circle cx="82.441" cy="189.193" r="0.7" fill="#FFC9C9" fill-opacity="0.8314"/><circle cx="325.123" cy="304.736" r="0.7" fill="#FFFFFF" fill-opacity="0.7961"/><circle cx="213.528" cy="238.637" r="1.3" fill="#BDD8FF" fill-opacity="0.9373"/><circle cx="539.986" cy="399.061" r="1" fill="#FFE9AF" fill-opacity="0.4314"/><circle cx="701.865" cy="289.522" r="0.7" fill="#BDD8FF" fill-opacity="0.9255"/><circle cx="563.378" cy="331.482" r="0.7" fill="#FFE9AF" fill-opacity="0.4588"/><circle cx="94.812" cy="366.128" r="0.7" fill="#BDD8FF" fill-opacity="0.851"/><circle cx="361.391" cy="162.457" r="1" fill="#FFFFFF" fill-opacity="0.6078"/><circle cx="100.745" cy="310.852" r="1.8" fill="#FFC9C9" fill-opacity="0.6235"/><circle cx="100.745" cy="310.852" r="4.68" fill="#FFC9C9" fill-opacity="0.1373"/><circle cx="339.817" cy="314.214" r="1" fill="#FFC9C9" fill-opacity="0.6235"/><circle cx="116.786" cy="424.067" r="1" fill="#FFFFFF" fill-opacity="0.6471"/><circle cx="646.09" cy="15.922" r="1" fill="#FFC9C9" fill-opacity="0.6902"/><circle cx="337.486" cy="23.293" r="0.7" fill="#BDD8FF" fill-opacity="0.9529"/><circle cx="128.324" cy="252.416" r="1.3" fill="#FFE9AF" fill-opacity="0.4157"/><circle cx="258.671" cy="337.614" r="1.8" fill="#FFE9AF" fill-opacity="0.9373"/><circle cx="258.671" cy="337.614" r="4.68" fill="#FFE9AF" fill-opacity="0.2078"/><circle cx="519.339" cy="414.798" r="1.8" fill="#BDD8FF" fill-opacity="0.8118"/><circle cx="519.339" cy="414.798" r="4.68" fill="#BDD8FF" fill-opacity="0.1804"/><circle cx="701.526" cy="257.207" r="1.3" fill="#FFFFFF" fill-opacity="0.5608"/><circle cx="273.113" cy="395.494" r="0.7" fill="#FFC9C9" fill-opacity="0.6353"/><circle cx="230.355" cy="373.586" r="1.8" fill="#FFE9AF" fill-opacity="0.851"/><circle cx="230.355" cy="373.586" r="4.68" fill="#FFE9AF" fill-opacity="0.1882"/><circle cx="322.346" cy="296.739" r="1.3" fill="#BDD8FF" fill-opacity="0.7529"/><circle cx="636.317" cy="223.766" r="1.3" fill="#FFFFFF" fill-opacity="0.4549"/><circle cx="90.584" cy="145.296" r="1.3" fill="#FFFFFF" fill-opacity="0.4549"/><circle cx="283.394" cy="372.962" r="1" fill="#FFE9AF" fill-opacity="0.9373"/><circle cx="259.905" cy="430.503" r="1.3" fill="#BDD8FF" fill-opacity="0.8941"/><circle cx="442.764" cy="104.781" r="1" fill="#FFC9C9" fill-opacity="0.7216"/><circle cx="336.32" cy="395.658" r="1.8" fill="#FFE9AF" fill-opacity="0.3725"/><circle cx="336.32" cy="395.658" r="4.68" fill="#FFE9AF" fill-opacity="0.08235"/><circle cx="24.428" cy="210.471" r="1.8" fill="#BDD8FF" fill-opacity="0.7059"/><circle cx="24.428" cy="210.471" r="4.68" fill="#BDD8FF" fill-opacity="0.1569"/><circle cx="297.815" cy="277.943" r="1" fill="#BDD8FF" fill-opacity="0.5686"/><circle cx="572.431" cy="31.058" r="1.3" fill="#FFE9AF" fill-opacity="0.5922"/><circle cx="348.902" cy="237.949" r="1.8" fill="#FFE9AF" fill-opacity="0.4471"/><circle cx="348.902" cy="237.949" r="4.68" fill="#FFE9AF" fill-opacity="0.09804"/><circle cx="651.798" cy="279.238" r="1" fill="#FFFFFF" fill-opacity="0.7647"/><circle cx="63.163" cy="195.885" r="1" fill="#FFFFFF" fill-opacity="0.9647"/><circle cx="301.727" cy="286.61" r="1.8" fill="#FFC9C9" fill-opacity="0.3647"/><circle cx="301.727" cy="286.61" r="4.68" fill="#FFC9C9" fill-opacity="0.07843"/><circle cx="699.101" cy="72.484" r="1.3" fill="#FFFFFF" fill-opacity="0.6431"/><circle cx="355.913" cy="417.675" r="0.7" fill="#FFC9C9" fill-opacity="0.8784"/><circle cx="254.064" cy="233.793" r="1" fill="#FFC9C9" fill-opacity="0.5333"/><circle cx="379.9" cy="30.91" r="1.3" fill="#FFC9C9" fill-opacity="0.3686"/><circle cx="130.864" cy="411.369" r="1.8" fill="#BDD8FF" fill-opacity="0.5373"/><circle cx="130.864" cy="411.369" r="4.68" fill="#BDD8FF" fill-opacity="0.1176"/><circle cx="467.461" cy="134.639" r="0.7" fill="#FFFFFF" fill-opacity="0.5843"/><circle cx="28.083" cy="196.805" r="0.7" fill="#FFFFFF" fill-opacity="0.6863"/><circle cx="422.277" cy="354.317" r="1.3" fill="#BDD8FF" fill-opacity="0.7804"/><circle cx="566.915" cy="349.508" r="1" fill="#BDD8FF" fill-opacity="0.7725"/><circle cx="454.442" cy="403.838" r="1.8" fill="#FFC9C9" fill-opacity="0.9059"/><circle cx="454.442" cy="403.838" r="4.68" fill="#FFC9C9" fill-opacity="0.2"/><circle cx="541.374" cy="51.36" r="0.7" fill="#BDD8FF" fill-opacity="0.851"/><circle cx="284.95" cy="272.455" r="1.8" fill="#FFE9AF" fill-opacity="0.9765"/><circle cx="284.95" cy="272.455" r="4.68" fill="#FFE9AF" fill-opacity="0.2157"/><circle cx="289.918" cy="309.887" r="1" fill="#FFE9AF" fill-opacity="0.7373"/><circle cx="92.11" cy="61.167" r="1.8" fill="#FFE9AF" fill-opacity="0.5333"/><circle cx="92.11" cy="61.167" r="4.68" fill="#FFE9AF" fill-opacity="0.1176"/><circle cx="485.4" cy="170.87" r="1.3" fill="#BDD8FF" fill-opacity="0.5882"/><circle cx="527.883" cy="217.876" r="1" fill="#FFE9AF" fill-opacity="0.4431"/><circle cx="290.934" cy="169.857" r="1" fill="#FFFFFF" fill-opacity="0.7412"/><circle cx="62.644" cy="121.877" r="1" fill="#FFE9AF" fill-opacity="0.8824"/><circle cx="258.818" cy="5.424" r="1.3" fill="#FFE9AF" fill-opacity="0.4902"/><circle cx="106.688" cy="411.297" r="1.3" fill="#FFFFFF" fill-opacity="0.4784"/><circle cx="73.579" cy="105.849" r="0.7" fill="#FFFFFF" fill-opacity="0.6706"/><circle cx="550.786" cy="199.394" r="1.8" fill="#FFC9C9" fill-opacity="0.8745"/><circle cx="550.786" cy="199.394" r="4.68" fill="#FFC9C9" fill-opacity="0.1922"/><circle cx="445.03" cy="63.818" r="1.3" fill="#BDD8FF" fill-opacity="0.9686"/><circle cx="713.646" cy="98.034" r="1.8" fill="#BDD8FF" fill-opacity="0.5059"/><circle cx="713.646" cy="98.034" r="4.68" fill="#BDD8FF" fill-opacity="0.1098"/><circle cx="203.364" cy="183.269" r="1" fill="#FFC9C9" fill-opacity="0.5804"/><circle cx="199.877" cy="146.721" r="1.3" fill="#FFFFFF" fill-opacity="0.7176"/><circle cx="465.056" cy="197.705" r="1.8" fill="#BDD8FF" fill-opacity="0.8353"/><circle cx="465.056" cy="197.705" r="4.68" fill="#BDD8FF" fill-opacity="0.1843"/><circle cx="246.356" cy="264.885" r="1.3" fill="#FFC9C9" fill-opacity="0.4706"/><circle cx="269.639" cy="300.114" r="1.8" fill="#FFE9AF" fill-opacity="0.451"/><circle cx="269.639" cy="300.114" r="4.68" fill="#FFE9AF" fill-opacity="0.09804"/><circle cx="263.857" cy="94.29" r="1.8" fill="#FFE9AF" fill-opacity="0.3922"/><circle cx="263.857" cy="94.29" r="4.68" fill="#FFE9AF" fill-opacity="0.08627"/><circle cx="382.647" cy="186.787" r="0.7" fill="#FFE9AF" fill-opacity="0.7765"/><circle cx="641.044" cy="174.448" r="1" fill="#FFE9AF" fill-opacity="0.8157"/><circle cx="553.668" cy="123.767" r="1" fill="#FFE9AF" fill-opacity="0.4235"/><circle cx="563.701" cy="236.171" r="1" fill="#BDD8FF" fill-opacity="0.6314"/><circle cx="232.021" cy="404.727" r="1.3" fill="#FFFFFF" fill-opacity="0.6235"/><circle cx="394.198" cy="181.867" r="1" fill="#FFC9C9" fill-opacity="0.8392"/><circle cx="525.946" cy="149.189" r="1.8" fill="#FFC9C9" fill-opacity="0.4627"/><circle cx="525.946" cy="149.189" r="4.68" fill="#FFC9C9" fill-opacity="0.102"/><circle cx="42.961" cy="23.189" r="1.3" fill="#BDD8FF" fill-opacity="0.6902"/><circle cx="378.624" cy="305.368" r="1" fill="#FFC9C9" fill-opacity="0.7529"/><circle cx="351.927" cy="346.951" r="1.3" fill="#FFFFFF" fill-opacity="0.7569"/><circle cx="239.445" cy="53.857" r="1.3" fill="#FFC9C9" fill-opacity="0.9059"/><circle cx="94.605" cy="43.932" r="1.8" fill="#FFC9C9" fill-opacity="0.6392"/><circle cx="94.605" cy="43.932" r="4.68" fill="#FFC9C9" fill-opacity="0.1412"/><circle cx="55.669" cy="108.903" r="1" fill="#FFC9C9" fill-opacity="0.4431"/><circle cx="413.53" cy="37.581" r="1.3" fill="#FFC9C9" fill-opacity="0.7451"/><circle cx="544.064" cy="408.497" r="1.8" fill="#BDD8FF" fill-opacity="0.8392"/><circle cx="544.064" cy="408.497" r="4.68" fill="#BDD8FF" fill-opacity="0.1843"/><circle cx="419.191" cy="314.848" r="1.8" fill="#FFC9C9" fill-opacity="0.7961"/><circle cx="419.191" cy="314.848" r="4.68" fill="#FFC9C9" fill-opacity="0.1765"/><circle cx="446.7" cy="266.699" r="1.8" fill="#FFFFFF" fill-opacity="0.8314"/><circle cx="446.7" cy="266.699" r="4.68" fill="#FFFFFF" fill-opacity="0.1843"/><circle cx="144.7" cy="347.985" r="0.7" fill="#BDD8FF" fill-opacity="0.6588"/><circle cx="516.043" cy="8.426" r="0.7" fill="#BDD8FF" fill-opacity="0.5333"/><circle cx="84.999" cy="185.698" r="1" fill="#FFFFFF" fill-opacity="0.5529"/><circle cx="153.196" cy="416.744" r="1.3" fill="#BDD8FF" fill-opacity="0.651"/><circle cx="451.3" cy="107.681" r="1.8" fill="#FFC9C9" fill-opacity="0.8745"/><circle cx="451.3" cy="107.681" r="4.68" fill="#FFC9C9" fill-opacity="0.1922"/><circle cx="127.301" cy="198.924" r="1.8" fill="#FFFFFF" fill-opacity="0.4039"/><circle cx="127.301" cy="198.924" r="4.68" fill="#FFFFFF" fill-opacity="0.0902"/><circle cx="189.016" cy="48.986" r="1.3" fill="#BDD8FF" fill-opacity="0.8157"/><circle cx="84.813" cy="296.718" r="1" fill="#BDD8FF" fill-opacity="0.5922"/><circle cx="230.098" cy="314.505" r="1" fill="#BDD8FF" fill-opacity="0.7294"/><circle cx="292.259" cy="57.337" r="1.3" fill="#FFFFFF" fill-opacity="0.4824"/><circle cx="683.585" cy="355.968" r="1.3" fill="#FFFFFF" fill-opacity="0.3647"/><circle cx="53.762" cy="152.348" r="1" fill="#FFC9C9" fill-opacity="0.9059"/><circle cx="290.669" cy="72.189" r="0.7" fill="#BDD8FF" fill-opacity="0.7098"/><circle cx="33.987" cy="70.255" r="1" fill="#BDD8FF" fill-opacity="0.9098"/><circle cx="510.608" cy="19.797" r="1.3" fill="#BDD8FF" fill-opacity="0.5294"/><circle cx="611.072" cy="18.818" r="0.7" fill="#FFE9AF" fill-opacity="0.6627"/><circle cx="545.834" cy="204.497" r="1" fill="#FFE9AF" fill-opacity="0.902"/><circle cx="182.921" cy="151.248" r="0.7" fill="#FFC9C9" fill-opacity="0.6431"/><circle cx="315.079" cy="105.048" r="1" fill="#FFE9AF" fill-opacity="0.4196"/><circle cx="377.809" cy="311.558" r="1.3" fill="#FFFFFF" fill-opacity="0.4627"/><circle cx="481.821" cy="400.138" r="1.3" fill="#FFFFFF" fill-opacity="0.9059"/><circle cx="643.359" cy="346.014" r="0.7" fill="#BDD8FF" fill-opacity="0.5412"/><circle cx="494.006" cy="122.987" r="0.7" fill="#FFFFFF" fill-opacity="0.9059"/><circle cx="269.674" cy="403.189" r="0.7" fill="#FFE9AF" fill-opacity="0.4"/><circle cx="577.657" cy="334.309" r="1" fill="#BDD8FF" fill-opacity="0.7882"/><circle cx="664.615" cy="248.503" r="1.3" fill="#FFFFFF" fill-opacity="0.9765"/><circle cx="95.683" cy="252.217" r="1" fill="#FFFFFF" fill-opacity="0.5647"/><circle cx="77.07" cy="15.629" r="0.7" fill="#BDD8FF" fill-opacity="0.7216"/><circle cx="147.882" cy="119.032" r="1" fill="#FFC9C9" fill-opacity="0.4784"/><circle cx="14.025" cy="371.52" r="1.3" fill="#FFC9C9" fill-opacity="0.5725"/><circle cx="531.855" cy="63.86" r="1" fill="#FFC9C9" fill-opacity="0.5843"/><circle cx="386.713" cy="302.606" r="1" fill="#BDD8FF" fill-opacity="0.651"/><circle cx="59.762" cy="50.853" r="1" fill="#FFC9C9" fill-opacity="0.7216"/><circle cx="670.995" cy="126.224" r="1.8" fill="#BDD8FF" fill-opacity="0.6784"/><circle cx="670.995" cy="126.224" r="4.68" fill="#BDD8FF" fill-opacity="0.149"/><circle cx="714.271" cy="125.979" r="0.7" fill="#FFFFFF" fill-opacity="0.8"/><circle cx="189.677" cy="257.222" r="0.7" fill="#FFC9C9" fill-opacity="0.9333"/><circle cx="534.89" cy="305.314" r="1.3" fill="#FFFFFF" fill-opacity="0.8784"/><circle cx="103.162" cy="1.647" r="1" fill="#BDD8FF" fill-opacity="0.7137"/><circle cx="282.748" cy="91.869" r="0.7" fill="#BDD8FF" fill-opacity="0.7569"/><circle cx="642.278" cy="418.554" r="1.8" fill="#FFE9AF" fill-opacity="0.8667"/><circle cx="642.278" cy="418.554" r="4.68" fill="#FFE9AF" fill-opacity="0.1922"/><circle cx="174.251" cy="439.656" r="1.3" fill="#BDD8FF" fill-opacity="0.6706"/><circle cx="136.667" cy="4.163" r="1.3" fill="#FFE9AF" fill-opacity="0.851"/><circle cx="407.445" cy="429.696" r="1.8" fill="#FFE9AF" fill-opacity="0.9804"/><circle cx="407.445" cy="429.696" r="4.68" fill="#FFE9AF" fill-opacity="0.2157"/><circle cx="256.706" cy="121.959" r="1.8" fill="#FFE9AF" fill-opacity="0.4314"/><circle cx="256.706" cy="121.959" r="4.68" fill="#FFE9AF" fill-opacity="0.09412"/><circle cx="171.216" cy="126.563" r="0.7" fill="#FFFFFF" fill-opacity="0.4353"/><circle cx="357.455" cy="245.431" r="1.8" fill="#FFFFFF" fill-opacity="0.8549"/><circle cx="357.455" cy="245.431" r="4.68" fill="#FFFFFF" fill-opacity="0.1882"/><circle cx="261.715" cy="121.772" r="0.7" fill="#BDD8FF" fill-opacity="0.5216"/><circle cx="294.525" cy="276.709" r="1.8" fill="#FFFFFF" fill-opacity="0.6863"/><circle cx="294.525" cy="276.709" r="4.68" fill="#FFFFFF" fill-opacity="0.1529"/><circle cx="695.527" cy="427.913" r="1.3" fill="#FFFFFF" fill-opacity="0.3804"/><circle cx="614.69" cy="188.508" r="1.8" fill="#FFC9C9" fill-opacity="0.5922"/><circle cx="614.69" cy="188.508" r="4.68" fill="#FFC9C9" fill-opacity="0.1294"/><circle cx="28.792" cy="350.752" r="0.7" fill="#FFC9C9" fill-opacity="0.4745"/>
</svg>